<?xml version="1.0" encoding="UTF-8"?>
<svg id="Layer_1" data-name="Layer 1" xmlns="http://www.w3.org/2000/svg" viewBox="0 0 125.39 154.13">
  <defs>
    <style>
      .cls-1 {
        stroke-width: 0px;
      }
    </style>
  </defs>
  <path class="cls-1" d="m85.5,51.35c-.13,0-.25.01-.37.03-.29.02-.58.1-.85.25l-7.01,4.01c-.6.34-.97.98-.97,1.67v8.18c0,.69.37,1.32.96,1.67.3.17.63.26.96.26s.66-.08.96-.25l7.26-4.16c.6-.34.97-.98.97-1.67v-8.07c0-1.06-.86-1.93-1.93-1.93Zm-1.93,8.88l-3.41,1.95v-3.74l3.41-1.95v3.74Z"/>
  <path class="cls-1" d="m104.7,40.86c-.59-.35-1.31-.36-1.91-.03l-7.39,4.05c-.62.34-1,.99-1,1.69v8.25c0,.69.37,1.32.96,1.67.3.17.63.26.97.26s.66-.09.96-.25l7.39-4.23c.6-.34.97-.98.97-1.67v-8.06c0-.68-.36-1.31-.94-1.66Zm-2.91,8.6l-3.54,2.03v-3.78l3.54-1.94v3.69Z"/>
  <path class="cls-1" d="m3.46,12.75c-.59.34-.96.98-.96,1.67v.05c0-.67.35-1.32.97-1.67l.36-.2c-.13.04-.25.09-.37.16Z"/>
  <path class="cls-1" d="m50.07,128.62c-.08.08-.17.16-.27.23v-.08s.02-.01.03-.02l.24-.14Z"/>
  <path class="cls-1" d="m50.07,128.62c-.08.08-.17.16-.27.23v-.08s.02-.01.03-.02l.24-.14Z"/>
  <path class="cls-1" d="m124.42,67.46l-14.13-8.09V21.9c0-.07,0-.13,0-.2,0-.69-.39-1.32-.99-1.65L74.25.45c-.06-.03-.12-.06-.18-.09-.59-.43-1.41-.5-2.09-.11l-35.77,20.49c-.6.34-.97.98-.97,1.67v2.07l-2.7,1.57v-11.6c0-.69-.37-1.33-.97-1.67l-13.09-7.49c-.59-.34-1.32-.34-1.91,0L3.83,12.59l-.36.2c-.62.35-.97,1-.97,1.67v15.54c0,.72.41,1.39,1.05,1.72l10.03,5.1-12.58,6.86c-.62.34-1,.99-1,1.69v55.83c0,.7.38,1.34.99,1.68l32.21,17.96c-.2.31-.32.67-.32,1.07v20.68c0,.69.37,1.33.97,1.67l16.78,9.61c.3.17.63.25.96.25s.66-.08.96-.25l8.37-4.79c.6-.34.97-.98.97-1.67v-9.16c0-.67-.34-1.28-.91-1.63l-7.31-4.56v-5.49l4.85-2.78-.15,4.33c-.03.71.35,1.38.97,1.74l16.84,9.64c.3.17.63.26.96.26s.66-.09.96-.26l8.06-4.62c.6-.34.97-.98.97-1.67v-9.42s0-.03,0-.05c.26-.84-.08-1.78-.88-2.24l-7.14-4.09v-5.4l16.06-9.2c.6-.34.97-.98.97-1.67v-13.21l5.41,3.1c.3.17.63.25.96.25s.66-.09.96-.25l20.99-12.03c.6-.34.97-.98.97-1.67v-8.19c0-.69-.37-1.33-.97-1.67Zm-43.6,11.7l-6.11,3.5-.19-38.52,31.92-19.02v32.09l-2.59-1.43c-.59-.33-1.3-.32-1.89.02l-20.97,12.01c-.6.34-.97.98-.97,1.67v8.11c0,.62.3,1.2.8,1.56Zm-7.88-75.02l31.58,17.64-31.6,18.83-31.9-18.19,31.92-18.28Zm-33.85,21.61l31.57,18,.19,38.67-31.76-17.79V25.76Zm-10.41,2.53l-9.4,5.39.06-10.4,9.35-5.04v10.06Zm-11.16-19.1l9.61,5.5-9.45,5.1-9.34-5.34,9.18-5.26ZM6.36,28.82v-11.08l9.13,5.23-.06,10.47-9.07-4.61Zm11.4,10.11c.13-.04.26-.09.38-.16l13.27-7.6c.05-.02.1-.05.15-.08l3.68-2.14v33.5L6,45.35l11.76-6.42ZM3.85,100.07v-51.52l32.03,18.73c.1.06.21.11.32.15,0,0,.02,0,.02.01l10.1,5.66c0,.06,0,.12,0,.18l.41,50.69L3.85,100.07Zm45.83,48.82l-12.95-7.42v-18.66l4.23,2.36v12.9c0,.69.37,1.33.97,1.67l7.76,4.44v4.71Zm8.34-2.6l-4.48,2.57v-4.82l4.48-2.57v4.82Zm-1.91-8.17l-4.63,2.65-6.68-3.83v-9.63l2.94,1.64c.29.16.61.24.94.24.34,0,.68-.09.98-.27.04-.03.09-.06.13-.09v-.08s.02-.01.03-.02l.24-.14c-.08.08-.17.16-.27.23v4.28c0,.66.34,1.28.91,1.63l5.4,3.37Zm19.1-3.61l-12.97-7.43.19-5.55,4.15-2.37v4.37c0,.69.37,1.33.97,1.67l7.67,4.39v4.92Zm8.03-2.43l-4.18,2.4v-4.98l4.18-2.4v4.98Zm-1.37-8.64l-4.82,2.76-6.63-3.8v-5.46l4.79-2.74v4.31c0,.69.37,1.33.97,1.67l5.69,3.26Zm10.37-23.44l-41.66,23.86-.4-48.61,21.67,12.14c.29.16.62.25.94.25.03,0,.07,0,.1,0,0,0,0,0,0,0,.1.02.21.03.31.03.32,0,.65-.08.95-.25l10.34-5.92c.06-.03.11-.07.17-.11l7.56,4.33v14.3Zm8.36-13.95l-16.72-9.58v-3.26l16.73,9.58v3.26Zm1.76-6.69l-16.9-9.68,17.47-10.01,4.32,2.38s.1.07.15.1l12.32,7.06c-4.48,2.61-13.28,7.76-17.36,10.16Zm19.17-3.16l-17.08,9.78v-3.38c4.5-2.63,12.78-7.48,17.08-9.99v3.59Z"/>
</svg>