<?xml version="1.0" standalone="no"?>
<!DOCTYPE svg PUBLIC "-//W3C//DTD SVG 20010904//EN"
 "http://www.w3.org/TR/2001/REC-SVG-20010904/DTD/svg10.dtd">
<svg version="1.0" xmlns="http://www.w3.org/2000/svg"
 width="800.000000pt" height="800.000000pt" viewBox="0 0 800.000000 800.000000"
 preserveAspectRatio="xMidYMid meet">

<g transform="translate(0.000000,800.000000) scale(0.100000,-0.100000)"
fill="#000000" stroke="none">
<path d="M3879 7008 c-378 -429 -431 -488 -437 -488 -4 0 -39 32 -78 71 l-72
71 -25 -43 c-14 -24 -55 -98 -92 -164 -85 -154 -92 -161 -101 -107 -4 23 -12
49 -19 59 -12 16 -14 14 -28 -17 -11 -28 -2309 -5479 -2364 -5607 -7 -18 -11
-33 -8 -33 3 0 29 21 57 48 56 52 129 155 176 249 36 71 58 92 47 45 -3 -17
-2 -33 4 -36 5 -4 66 67 134 156 69 90 135 172 147 183 l22 20 -6 -32 c-16
-73 19 -36 140 149 70 106 156 225 193 264 127 136 259 343 432 673 200 381
813 1478 844 1510 11 11 17 7 37 -25 13 -22 433 -716 933 -1544 499 -828 923
-1521 941 -1540 24 -24 37 -31 44 -24 8 8 -14 72 -73 215 -120 291 -191 515
-222 693 l-6 38 29 -21 c40 -28 64 -28 57 2 -23 97 -72 347 -68 347 22 0 156
-200 189 -282 23 -56 44 -93 44 -76 0 3 -7 41 -15 85 -30 158 -104 364 -240
668 -42 96 -144 379 -280 780 -117 347 -250 722 -295 835 -80 202 -141 387
-154 465 -7 40 -6 42 63 112 102 104 612 497 969 747 215 151 683 459 1037
682 165 104 388 248 495 320 417 280 468 313 555 366 130 79 255 146 364 194
87 40 122 66 107 81 -14 15 -186 -41 -313 -101 -76 -35 -350 -149 -608 -251
-259 -103 -491 -195 -517 -206 l-47 -18 14 37 c7 20 29 79 49 131 20 52 35 98
34 103 -2 5 -138 -77 -302 -182 -165 -104 -301 -188 -303 -186 -2 2 1 15 7 30
9 24 -12 15 -233 -98 -133 -68 -280 -138 -327 -155 -47 -17 -129 -47 -182 -66
-53 -20 -242 -105 -419 -191 -177 -85 -323 -153 -326 -151 -2 3 165 323 372
712 207 389 375 712 373 719 -2 7 -131 -90 -288 -214 -157 -125 -286 -227
-287 -226 -1 1 13 105 32 231 19 126 30 234 26 238 -5 5 -109 -105 -232 -245z"/>
</g>
</svg>
