<?xml version="1.0" encoding="UTF-8"?>
<svg id="Layer_1" data-name="Layer 1" xmlns="http://www.w3.org/2000/svg" viewBox="0 0 131.4 155.73">
  <defs>
    <style>
      .cls-1 {
        fill-rule: evenodd;
        stroke-width: 0px;
      }
    </style>
  </defs>
  <g id="Page-1">
    <g id="log-white">
      <path id="XLS" class="cls-1" d="m90.3,0H.64v89.66h16.3V16.3h66.59l31.22,31.22v42.14h16.3v-48.91L90.3,0h0ZM0,154.87v-48.9h11.01v40.27h21.01v8.63H0Zm58.52-49.76c7.68,0,13.57,2.44,17.67,7.32,3.93,4.67,5.9,10.67,5.9,18.01,0,8.03-2.32,14.41-6.97,19.15-4,4.09-9.54,6.14-16.6,6.14-7.68,0-13.57-2.44-17.67-7.32-3.93-4.67-5.9-10.77-5.9-18.29s2.32-14.17,6.97-18.91c4.03-4.07,9.56-6.11,16.6-6.11Zm-.03,8.63c-3.98,0-7.05,1.66-9.21,4.97-1.96,2.99-2.93,6.83-2.93,11.53,0,5.43,1.16,9.64,3.49,12.63,2.19,2.83,5.08,4.24,8.7,4.24,3.96,0,7.04-1.67,9.25-5,1.96-2.94,2.93-6.83,2.93-11.66,0-5.31-1.16-9.47-3.49-12.46-2.19-2.83-5.1-4.24-8.73-4.24Zm72.91,13.77v24.95c-2.81.94-4.78,1.56-5.94,1.86-3.57.94-7.4,1.41-11.49,1.41-8.05,0-14.18-2.02-18.39-6.07-4.67-4.46-7-10.69-7-18.67,0-9.18,2.9-16.1,8.7-20.77,4.21-3.4,9.89-5.11,17.05-5.11,6.12,0,11.81,1.12,17.08,3.35l-3.76,8.59c-2.48-1.24-4.66-2.11-6.52-2.61-1.86-.49-3.91-.74-6.14-.74-5.34,0-9.27,1.74-11.8,5.21-2.14,2.94-3.21,6.82-3.21,11.63,0,5.77,1.61,10.12,4.83,13.04,2.58,2.35,5.77,3.52,9.59,3.52,2.23,0,4.35-.38,6.35-1.14v-9.83h-8.42v-8.63h19.08Z"/>
    </g>
  </g>
</svg>