<?xml version="1.0" encoding="UTF-8"?>
<svg id="Layer_1" data-name="Layer 1" xmlns="http://www.w3.org/2000/svg" viewBox="0 0 151.39 155.73">
  <defs>
    <style>
      .cls-1 {
        stroke-width: 0px;
      }
    </style>
  </defs>
  <path class="cls-1" d="m115.89,88.24c-.05.07-.1.13-.15.2-.03-.13-.07-.25-.12-.36.08.05.17.1.27.17Z"/>
  <path class="cls-1" d="m15.02,96.56c.07.07.14.14.22.2-.08-.06-.16-.13-.22-.2Z"/>
  <path class="cls-1" d="m22.4,90.54c-.11.04-.22.08-.33.14.1-.06.21-.1.33-.14Z"/>
  <path class="cls-1" d="m101.87,140.75s.03.01.04.02c0,0,.02,0,.03,0-.03,0-.05-.01-.07-.02Zm.62.1c-.14,0-.28-.01-.42-.04.14.03.28.05.42.05.06,0,.11,0,.16,0-.05,0-.11,0-.16,0Z"/>
  <path class="cls-1" d="m41.69,32.84c-3.84,0-5.87-1.81-5.99-1.93l2.65-2.86-.03-.03c.12.1,2.94,2.39,9.02-.59,5.86-3.09,12.66-4,19.13-2.55,1.05.24,1.71,1.28,1.47,2.33-.24,1.05-1.28,1.71-2.33,1.47-5.58-1.25-11.43-.47-16.48,2.21-.02,0-.03.02-.05.03-2.94,1.44-5.4,1.93-7.38,1.93Z"/>
  <path class="cls-1" d="m41.75,40.62c-1.17,0-2.33-.08-3.48-.25-4.96-.73-9.04-3.02-10.91-6.15-.55-.92-.25-2.12.67-2.67.92-.55,2.12-.25,2.67.67,2.4,4,12.04,6.82,21.13,1.96,5.27-3.08,11.57-3.61,17.28-1.45,1.01.38,1.51,1.5,1.14,2.51-.38,1.01-1.5,1.51-2.51,1.13-4.62-1.74-9.72-1.31-13.98,1.19-.02.01-.04.02-.06.04-3.7,1.98-7.84,3.02-11.96,3.02Z"/>
  <path class="cls-1" d="m56.73,80.31c-.59,0-1.17-.27-1.56-.78-.63-.84-.48-2.01.32-2.67.26-.7-.39-3.52-2.32-6.98-.05-.09-.09-.18-.12-.27,0-.02-.02-.04-.03-.05-.08-.13-.25-.16-.38-.08-.9.58-2.11.33-2.69-.58-.58-.9-.33-2.11.58-2.69,1.93-1.25,4.51-.7,5.76,1.23.13.21.25.43.35.65,1.89,3.42,4.49,9.39,1.27,11.82-.35.26-.76.39-1.17.39Z"/>
  <path class="cls-1" d="m40.07,81.04c-.62,0-1.24-.3-1.61-.85-1.63-2.4-1.53-5.54.23-7.84,1.79-2.52,4.23-2.19,5.44-1.35.88.61,1.1,1.82.49,2.71-.57.82-1.65,1.07-2.51.61-.06.05-.15.15-.26.3-.02.03-.04.06-.06.08-.75.96-.8,2.29-.11,3.3.6.89.37,2.1-.52,2.7-.33.23-.71.34-1.09.34Zm1.84-6.84s.05.03.07.05c-.03-.02-.05-.03-.07-.05Z"/>
  <path class="cls-1" d="m84.52,40.04c-12,0-21.76,9.76-21.76,21.76s9.76,21.76,21.76,21.76,21.76-9.76,21.76-21.76-9.76-21.76-21.76-21.76Zm0,39.63c-9.85,0-17.87-8.01-17.87-17.87s8.01-17.86,17.87-17.86,17.87,8.01,17.87,17.86-8.01,17.87-17.87,17.87Z"/>
  <path class="cls-1" d="m151.36,100.33c-.85-4.9-8.84-12.33-11.27-14.49-2.06-1.83-8.41-7.24-14.03-9.64.08-.09.17-.19.25-.28,2.44-2.27,4.42-7.55,5.17-13.83.49-4.06.81-11.84-2.33-19.21.68-.11,1.38-.11,2.08,0,1.07.18,2.06-.54,2.24-1.6.18-1.06-.54-2.06-1.6-2.24-1.48-.24-2.95-.16-4.34.21-.49-1.1-.97-2.21-1.45-3.31-4.47-10.3-9.1-20.96-18.73-28.24-.45-.34-.95-.67-1.48-.99,1.18-1.42,2.65-2.57,4.43-2.83,1.07-.16,1.8-1.14,1.65-2.21-.15-1.06-1.14-1.8-2.21-1.65-3.31.48-5.72,2.6-7.45,4.94-6.61-2.65-16.56-4.13-28.05-4.07-15.56.08-30.08,2.96-39.82,7.9-2.43,1.23-4.7,2.64-6.81,4.14-1.9-2.6-2.32-6.14-.8-9.24.47-.96.07-2.13-.89-2.6-.96-.47-2.13-.07-2.6.89-2.19,4.48-1.57,9.58,1.21,13.32-1.91,1.57-3.66,3.21-5.27,4.87-.59-.84-1.43-1.63-2.61-2.07-2.29-.85-4.99-.07-8.02,2.35-.56.45-2.45,1.85-3.24,1.15-.93-.82-1.05-3.26-.7-4.03.76-.59.99-1.66.5-2.51-.54-.93-1.73-1.25-2.66-.72-1.93,1.11-1.94,4.07-1.9,4.95.14,2.86,1.39,5.09,3.35,5.98.51.23,1.16.41,1.93.41,1.34,0,3.05-.53,5.15-2.19,1.8-1.43,3.34-2.07,4.22-1.75.58.21.99.88,1.23,1.46-1.38,1.61-2.63,3.21-3.74,4.74-4.86-1.11-9.93,1.04-12.49,5.37-.55.93-.24,2.12.69,2.67.31.18.65.27.99.27.67,0,1.31-.34,1.68-.96,1.42-2.39,3.99-3.78,6.68-3.74-4.12,6.42-7.86,14.6-6.83,17.51.84,2.37,3.05,3.83,4.86,4.66-3.49,3.43-5.61,8.22-5.55,13.47-.17,5.07,1.85,9.94,5.49,13.38-.96,3.77,3.06,11.28,6.61,15.83,0,0,.02.02.02.03.04.04.07.08.11.12.07.07.14.14.22.2.16.12.35.22.55.29,0,0,.02,0,.03,0,0,0,.02,0,.03,0,.02,0,.05.01.08.02.42.13,1.59.45,2.97.45,1.08,0,2.28-.19,3.37-.83.74-.43,1.63-1.2,2.21-2.53,1.24-.13,3.36-.34,6.18-.56-.85,1.98-1.69,4.84-.73,7.18.46,1.13,1.53,2.61,4.01,3.21.16.04.33.08.5.11h0c.05.04.11.08.17.12.1.06.19.13.28.21.5.48.65,1.18.45,1.8-.85.18-1.56.7-1.95,1.46-.3.57-.42,1.24-.36,2.05-.18.05-.36.14-.53.25-.52.34-5.05,3.44-5.61,7.05-.21,1.36.14,2.65,1.02,3.74,2.24,2.77,5.23,3.4,8.09,3.47-.62,1.62-1.11,3.73-.47,5.57.5,1.45,1.59,2.52,3.16,3.09,2.03.74,6.75,1.11,14.07,1.11.71,0,1.46,0,2.22-.01,1.52-.02,3.85-.06,6.16-.14-.59.82-1.15,1.67-1.67,2.54-.07.11-.12.24-.17.36-2.15,6.21-.86,13.19,3.38,18.22.39.46.93.69,1.49.69.44,0,.89-.15,1.25-.46.82-.69.93-1.92.23-2.74-3.32-3.93-4.36-9.38-2.74-14.25.99-1.63,2.13-3.18,3.4-4.61,1.12-.09,1.96-.18,2.3-.3.08-.03.2-.07.37-.14-.14,3.23.05,6.46.57,9.65.04.27.14.53.3.76,1.48,2.24,3.53,4.04,5.95,5.21-.4,1.41-.72,2.63-.9,3.49-.22,1.05.45,2.08,1.5,2.31.14.03.27.04.4.04.9,0,1.71-.63,1.9-1.55.78-3.69,4.49-14.99,5.63-18.43,1.05.36,2.15.59,3.29.69.06,0,.11,0,.17,0,.11,0,.21,0,.32-.03,1.92-.32,3.74-.96,5.39-1.89-.77,5.48-1.22,11.02-1.33,16.53-.02,1.07.83,1.96,1.91,1.99h.04c1.06,0,1.92-.85,1.95-1.91.14-6.76.79-13.57,1.95-20.23,0-.03,0-.06.01-.09.42-.49.81-1.01,1.17-1.55,1.72,4,2.24,7.51,1.48,10.05,0,.02,0,.03-.01.04,0,0,0,0,0,.01-.01.04-.02.09-.03.13,0,.04-.02.08-.02.12,0,.04-.01.07-.01.11,0,.02,0,.05,0,.07,0,.04,0,.07,0,.11,0,.06,0,.11,0,.17,0,.01,0,.03,0,.04,0,.03,0,.07.01.1,0,0,0,.01,0,.02,0,.01,0,.03,0,.04,0,.04.01.07.03.11h0c.01.05.03.1.04.15.01.03.02.06.03.1,0,0,0,0,0,0,0,.02.02.04.03.07,0,.03.02.06.04.08,0,0,0,0,0,0,0,.01,0,.02.02.03.02.04.04.07.06.11.05.09.11.17.17.25.02.02.04.05.06.07h.01c.04.05.07.09.11.13.04.04.07.07.11.1h0s.01.01.02.02c.03.02.06.04.08.06.04.03.09.06.14.09.05.03.11.06.17.08.02.01.05.02.07.03.03.01.07.03.1.04.02,0,.05.02.07.02,0,0,.02,0,.03,0,.03,0,.07.02.1.03.14.03.28.04.42.04.05,0,.11,0,.16,0,.06,0,.11-.01.17-.02.05,0,.11-.02.16-.04.05-.01.09-.03.14-.04,0,0,0,0,0,0,.02,0,.04-.01.06-.02h0s.06-.02.09-.04c.02,0,.03-.01.04-.02.04-.02.08-.04.11-.06.01,0,.02-.01.04-.02.04-.02.07-.04.1-.06.02-.01.04-.02.05-.03.03-.02.06-.04.09-.07.02-.01.04-.03.05-.04,4.2-3.5,7.43-8.45,9.62-14.71,1.71-4.91,2.79-10.65,3.2-17.05.69-10.82-.75-19.71-.81-20.08,0-.04-.01-.07-.02-.11-.03-.13-.07-.25-.12-.36.08.05.17.1.27.17,1.34.85,4.24,2.93,6.85,6.47,4.74,6.43,6.14,14.28,4.18,23.35-.23,1.05.44,2.09,1.49,2.31.14.03.28.04.41.04.9,0,1.7-.62,1.9-1.53,2.75-12.71-1.12-21.41-4.85-26.48-2.75-3.74-5.8-6.07-7.55-7.22,1.61-1.99,3.27-3.96,4.96-5.88,3.49,1.14,8.92,4.73,14.22,9.44,6.42,5.7,9.69,10.35,10.02,12.25.16.95.99,1.61,1.92,1.61.11,0,.22,0,.34-.03,1.06-.18,1.77-1.19,1.58-2.25ZM6.68,67.29v-.1c-.11-7.85,5.93-14.39,13.77-14.88.06,0,.12,0,.18-.02.49.12,1,.27,1.55.45,4.53,1.47,8.93,7.39,10.24,13.77.59,2.87,1,8.18-2.86,11.56-7.7,6.74-12.34,4.25-16.07,1.38-.57-.43-1.09-.71-1.56-.86-3.45-2.7-5.41-6.91-5.25-11.3Zm6.47-13.79h0s0,0,0,0h0Zm21.7,46.75c-1.06-.26-1.25-.72-1.32-.9-.1-.25-.15-.55-.15-.89,0-1.52.94-3.72,1.77-5.06.02-.03.03-.06.05-.08,2.21-.14,4.66-.28,7.31-.38.04.5.14.97.21,1.32.32,1.59.94,3.56,1.75,5.56.08.19.1.31.1.36-.14.16-.95.67-3.08.78-1.95.1-4.37-.16-6.64-.71Zm13.23-1.9c-1.08-2.65-1.54-4.59-1.66-5.55.71-.02,1.43-.04,2.16-.06-.03.78-.04,2.2.12,3.7.39,3.5,1.57,5.66,3.52,6.42.11.04.23.08.35.1.92.18,2.3.44,3.77.44,2.44,0,5.09-.73,6.21-3.81.13-.36.15-.76.06-1.14-.4-1.6-.79-3.38-1.17-5.28.66.09,1.28.2,1.86.32.03,1.5.36,5.6,3.19,6.99.04.02.07.04.11.05.92.38,1.87.56,2.81.56,1.62,0,3.21-.54,4.5-1.57.15.15.31.31.46.46.51.5,1.03,1.03,1.59,1.56,2.55,2.44,2.89,6.28,2.36,9.06-.47,2.46-1.46,3.61-1.76,3.74-.29.07-.89.12-1.74.15.76-1.94,1.07-4.14,1.24-5.37.26-1.87-.11-3.39-1.09-4.52-1.47-1.69-3.79-1.91-5.65-1.91-.35,0-.79-.02-1.26-.05-1.31-.07-2.94-.16-4.35.16-2.95.66-3.56,2.7-3.66,3.86,0,.05,0,.1,0,.15-.02,2.63.44,5.25,1.34,7.71-4.33-.06-9.13-.15-13.81-.26.03-.13.06-.25.09-.36.35-1.3.39-1.85.02-3.95-.04-.22-.11-.42-.22-.61-1.82-3.23-5.27-3.68-8.15-3.53,0-.34-.02-.67-.07-1.01.46.03.93.04,1.39.04,2.8,0,5.51-.53,6.9-2.14.59-.69,1.45-2.17.55-4.37Zm4.36-4.57c0-.36.01-.73.03-1.09,1.81-.02,3.44.02,4.92.1.4,2.13.82,4.11,1.26,5.92-.64.9-2.13,1.03-5.11.48-.57-.43-1.11-2.78-1.11-5.41Zm14.85.93c1.42.6,2.57,1.32,3.62,2.12-.84.43-1.84.49-2.76.13-.36-.22-.69-1.16-.86-2.26Zm-3.37,12.25c.02-.12.1-.22.63-.34.9-.2,2.17-.13,3.3-.07.52.03,1.01.05,1.46.05,1.83,0,2.49.31,2.71.57.28.32.23,1.03.17,1.43-.67,4.8-1.64,5.72-1.8,5.84-.27,0-.52.06-.75.16-1.23,0-2.59,0-4.04,0-1.11-2.38-1.69-4.99-1.68-7.62Zm-20.03,5.96c-.08.31-.19.71-.31,1.27-1.72-.04-3.39-.09-4.99-.14-.73-1.38-1.36-2.94-1.6-3.91-.01-.05-.03-.1-.04-.15.03,0,.05,0,.08,0,.12-.02.24-.04.37-.05h0c2.7-.36,5.35-.5,6.5,1.09.2,1.12.17,1.22,0,1.89Zm33,32.15c-1.42-.79-2.65-1.89-3.6-3.21-.52-3.45-.63-6.95-.32-10.42,1.36-.63,2.89-1.35,4.34-2.03.95,1.4,2.13,2.6,3.48,3.55-.54,1.63-2.38,7.18-3.9,12.13Zm20-20.7c-1.73,3.75-5.16,6.41-9.2,7.15-2.72-.3-5.15-1.67-6.8-3.82,10-4.8,10.22-5.18,10.57-5.79.14-.24.9-1.32,1.95-2.82.85.9,2.23,2.65,3.63,5.01-.06.08-.11.17-.15.27Zm7.86,9.43c-.75-6.25-4.75-12.8-7.34-16.03-.39-.48-.74-.89-1.06-1.24,6.12-3.7,11.65-8.2,16.49-13.43-.04,9.69-1.56,22.32-8.1,30.7Zm18.89-60.68s-.09.08-.13.13c-5.14,5.61-10.03,11.57-14.53,17.71-.64.87-.45,2.09.42,2.72.35.25.75.38,1.15.38.6,0,1.19-.28,1.57-.8.08-.11.17-.23.25-.35.12,1.24.24,2.76.33,4.47-.06.05-.11.11-.17.18-3.58,4.3-7.62,8.14-12.05,11.48.36-.82.11-1.82-.65-2.36-.88-.62-2.09-.42-2.71.45-1.84,2.58-7.51,10.55-8.79,12.46-2.3,1.44-19.06,9.37-20.92,10.09-2.49.43-23.45,1.08-27.41-.36-.57-.21-.73-.47-.81-.69-.36-1.05.4-3.12,1.13-4.43,1.01-.1,1.78-.97,1.75-2-.04-1.07-.94-1.92-2.01-1.89-.4.01-.81.03-1.22.05-3.13.14-6.1.28-7.92-1.97-.18-.23-.24-.42-.2-.69.11-.69.71-1.54,1.47-2.35.59-.62,1.28-1.22,1.92-1.69.08.2.17.4.25.59-.54.33-.9.92-.93,1.6-.03,1.07.81,1.97,1.89,2,4.48.14,21.38.63,32.48.63,4.98,0,8.79-.1,9.78-.37,1.93-.53,3.55-2.74,4.35-5.89,1.01-4.02.68-9.67-3.3-13.47-.53-.51-1.04-1.02-1.53-1.51-4.64-4.61-8.64-8.6-24.73-8.44-16.02.15-28.18,1.52-29.49,1.67-.07,0-.11.01-.12.01h0c-.05,0-.11.02-.16.03-.02,0-.04,0-.06.01-.05.01-.09.02-.14.04-.11.04-.22.08-.33.14-.08.04-.15.09-.22.14-.07.05-.14.11-.2.16-.13.12-.24.26-.33.41-.09.15-.16.31-.21.48-.02.06-.03.11-.04.17-.16.87-.52,1.17-.77,1.32-.75.44-1.98.31-2.74.15-3.12-4.13-4.72-7.91-5.3-10.11,4.69,3.24,11.07,5.31,19.85-2.39,3.91-3.42,5.41-8.98,4.11-15.27-1.6-7.77-7-14.79-12.85-16.69-7.53-2.45-11.18-.28-12.77,1.42-1.27-.5-2.95-1.39-3.44-2.61-.07-1.25,1.85-7.38,7.05-15.19,2.92-4.38,7.27-9.87,13.08-14.59.46.34.96.64,1.48.92.29.16.61.23.92.23.69,0,1.37-.37,1.72-1.03.51-.94.16-2.11-.78-2.63,1.73-1.19,3.58-2.31,5.54-3.3,9.08-4.6,23.32-7.4,38.07-7.48,10.4-.05,19.83,1.28,25.95,3.55-.43.82-.78,1.58-1.07,2.21-.18.4-.41.89-.52,1.08-.64.74-.63,1.86.05,2.6.38.41.9.62,1.42.62.47,0,.95-.17,1.33-.52.46-.43.72-1,1.25-2.13.28-.61.64-1.38,1.07-2.21.46.27.88.55,1.26.83,8.82,6.66,13.24,16.84,17.51,26.68.49,1.14.99,2.29,1.5,3.45-1,.74-1.88,1.67-2.57,2.77-.58.91-.31,2.11.6,2.69.32.21.69.3,1.04.3.64,0,1.27-.32,1.64-.9.27-.43.59-.82.94-1.16,4.66,11.25,1.07,25.65-2.05,28.46Z"/>
  <path class="cls-1" d="m86.6,54.79c-3.22,0-5.84,2.62-5.84,5.84s2.62,5.84,5.84,5.84,5.84-2.62,5.84-5.84-2.62-5.84-5.84-5.84Zm0,7.79c-1.07,0-1.95-.87-1.95-1.95s.87-1.95,1.95-1.95,1.95.87,1.95,1.95-.87,1.95-1.95,1.95Z"/>
  <path class="cls-1" d="m17.89,71.48c-3.12,0-5.67-2.54-5.67-5.67s2.54-5.67,5.67-5.67,5.67,2.54,5.67,5.67-2.54,5.67-5.67,5.67Zm0-7.44c-.98,0-1.77.8-1.77,1.77s.8,1.77,1.77,1.77,1.77-.8,1.77-1.77-.8-1.77-1.77-1.77Z"/>
  <path class="cls-1" d="m13.15,53.49h0s0,0,0,0h0Z"/>
  <path class="cls-1" d="m37.4,109.92c-.13.09-.27.15-.41.21-.01-.05-.03-.1-.04-.15.03,0,.05,0,.08,0,.12-.02.24-.04.37-.05Z"/>
  <path class="cls-1" d="m110.33,82.06c-1.94,1.4-3.58,3.12-4.88,5.14-.12.52.03,1.1.29,2.03.37,1.3.82,2.91.22,4.84-.04.13-.09.25-.15.36-1.73,3.14-3.93,5.97-6.54,8.43-.38.35-.85.53-1.33.53-.52,0-1.03-.21-1.42-.61-.74-.78-.7-2.01.09-2.75,2.26-2.12,4.17-4.57,5.68-7.27.18-.73,0-1.43-.29-2.47-.36-1.25-.8-2.81-.16-4.57.05-.13.11-.25.18-.37,1.58-2.53,3.61-4.7,6.04-6.44.87-.63,2.09-.43,2.72.44.63.87.43,2.09-.45,2.72Z"/>
</svg>