<?xml version="1.0" standalone="no"?>
<!DOCTYPE svg PUBLIC "-//W3C//DTD SVG 20010904//EN"
 "http://www.w3.org/TR/2001/REC-SVG-20010904/DTD/svg10.dtd">
<svg version="1.0" xmlns="http://www.w3.org/2000/svg"
 width="3333.000000pt" height="3333.000000pt" viewBox="0 0 3333.000000 3333.000000"
 preserveAspectRatio="xMidYMid meet">

<g transform="translate(0.000000,3333.000000) scale(0.100000,-0.100000)"
fill="#000000" stroke="none">
<path d="M24770 25164 c-322 -6 -621 -13 -665 -13 l-80 -2 -55 -87 c-30 -48
-121 -175 -202 -283 -225 -300 -393 -499 -408 -482 -4 4 -143 191 -309 416
-243 326 -307 407 -324 406 -30 -2 -274 -258 -319 -334 -171 -294 -206 -818
-82 -1249 14 -48 24 -89 22 -91 -2 -1 -563 -64 -1248 -139 -685 -76 -1522
-170 -1860 -209 l-615 -72 -6065 -2 c-3336 0 -6112 -3 -6170 -6 -73 -4 -121
-12 -158 -26 -29 -12 -97 -28 -150 -36 -87 -14 -118 -26 -312 -118 -300 -143
-394 -206 -509 -342 -130 -155 -214 -320 -320 -631 -82 -240 -85 -329 -36
-924 12 -146 15 -527 15 -2308 0 -2393 5 -2242 -69 -2312 -69 -65 -78 -67
-166 -26 -43 20 -80 34 -83 32 -2 -3 3 -41 12 -85 17 -81 43 -159 91 -266 14
-33 67 -199 116 -370 64 -221 110 -356 158 -470 83 -196 123 -313 159 -476
l28 -124 33 2 c52 2 105 45 164 135 156 234 190 339 272 830 25 150 60 325 77
388 24 90 33 146 38 255 4 77 17 190 29 250 37 194 43 300 47 795 3 389 8 510
22 610 25 180 24 1020 -1 1218 -14 110 -17 221 -17 611 0 479 -8 662 -35 821
-10 57 -15 156 -15 297 0 117 -5 257 -11 312 -21 178 16 390 105 613 107 265
228 389 436 445 52 14 104 18 252 18 111 -1 192 -5 198 -11 6 -6 -11 -21 -53
-43 -189 -103 -272 -196 -331 -372 -60 -180 -56 230 -56 -6038 0 -4597 3
-5734 13 -5766 9 -29 11 -82 7 -190 -6 -150 -6 -150 -49 -250 -27 -62 -48
-127 -54 -172 l-11 -72 -50 -12 c-277 -63 -1103 -285 -1438 -385 -431 -128
-1449 -482 -1268 -440 14 4 160 31 325 62 285 52 427 76 1080 179 452 71 1146
183 1335 215 431 73 859 118 1905 200 594 47 968 87 1360 145 88 13 205 26
260 30 55 3 336 24 625 45 289 22 710 49 935 60 226 11 662 34 970 50 309 16
793 34 1080 39 286 6 648 13 805 16 157 3 497 10 755 15 512 11 1320 11 2005
-1 239 -3 640 -10 890 -13 673 -10 2273 -84 3265 -151 948 -64 1889 -143 2120
-179 313 -49 740 -94 1460 -156 741 -63 1236 -120 1575 -180 197 -35 400 -67
1068 -170 997 -153 1447 -225 1687 -269 519 -95 954 -171 976 -171 13 0 -70
39 -186 86 -115 47 -271 111 -345 141 -74 30 -463 165 -865 300 -600 200 -803
264 -1140 354 -781 211 -1189 319 -1202 319 -19 0 -16 25 17 142 100 359 299
720 607 1103 443 552 734 867 1111 1203 139 124 251 227 249 229 -3 2 -40 -3
-83 -12 -399 -82 -969 -445 -1414 -901 -156 -161 -245 -271 -316 -395 -25 -43
-50 -79 -56 -79 -6 0 -7 30 -4 78 3 42 8 127 11 187 8 138 39 365 71 515 88
411 203 734 470 1316 68 149 124 275 124 279 0 15 -97 -2 -146 -26 -65 -32
-224 -190 -300 -299 -281 -400 -521 -974 -579 -1381 -9 -63 -19 -121 -22 -129
-3 -8 -16 24 -29 72 -139 515 -711 1316 -1203 1686 -91 69 -208 138 -217 130
-4 -5 144 -192 307 -388 367 -441 512 -714 628 -1185 70 -284 69 -414 -6 -717
-27 -109 -52 -200 -55 -204 -4 -3 -19 18 -34 48 -221 436 -956 914 -1574 1022
-96 17 -220 25 -220 15 0 -10 185 -90 345 -149 169 -63 252 -104 365 -180 400
-269 655 -602 868 -1130 55 -139 197 -556 208 -615 7 -37 6 -37 -22 -31 -16 3
-150 26 -299 51 -353 60 -841 150 -1245 230 -949 188 -1247 231 -2220 320
-822 75 -1028 98 -1045 117 -22 24 -44 96 -74 245 -17 81 -48 198 -70 258 -47
133 -111 382 -145 565 -62 330 -83 579 -96 1100 -14 537 -5 724 45 935 13 55
29 150 35 210 18 179 79 548 95 577 8 14 31 109 51 210 29 150 44 201 81 283
43 94 105 274 228 668 70 222 115 328 264 627 409 816 837 1451 1498 2223 395
462 573 651 717 762 35 28 73 65 83 83 27 50 479 446 558 490 44 24 250 27
513 8 119 -9 363 -20 542 -26 179 -6 600 -20 935 -32 336 -12 813 -22 1060
-22 340 -1 455 -4 472 -13 16 -10 87 -13 256 -13 l235 0 92 111 c51 62 287
314 524 561 261 272 432 458 434 472 2 17 -21 46 -100 122 -333 322 -3297
3201 -3411 3314 l-139 136 911 519 c501 286 911 523 911 528 0 11 -1585 5
-2240 -9z m-11840 -9398 c184 -41 454 -102 600 -135 146 -33 468 -105 715
-161 248 -55 617 -144 821 -196 204 -52 433 -103 509 -115 76 -12 157 -29 180
-39 98 -42 337 -100 494 -119 46 -6 85 -12 87 -14 2 -1 -4 -39 -12 -82 -11
-59 -18 -196 -24 -520 -8 -436 -13 -499 -50 -645 -14 -57 -20 -127 -25 -295
-3 -121 -16 -368 -30 -550 -14 -181 -45 -600 -70 -930 -25 -330 -61 -813 -80
-1074 -20 -261 -36 -476 -38 -477 -1 -1 -173 -5 -382 -9 -1312 -21 -2291 -76
-3126 -175 -90 -10 -164 -18 -165 -17 0 1 -78 128 -171 282 -190 312 -317 570
-372 760 -18 61 -69 232 -112 380 -114 385 -140 572 -140 1004 0 253 13 406
43 521 39 145 48 201 63 385 24 307 13 262 207 815 216 614 391 1008 585 1309
92 143 123 182 142 177 9 -3 167 -39 351 -80z m-3968 -1213 c28 -30 47 -73 74
-168 9 -33 43 -107 75 -165 32 -58 103 -215 157 -350 106 -262 148 -352 235
-498 30 -51 79 -150 107 -220 117 -286 144 -344 231 -497 108 -189 249 -474
384 -780 227 -514 264 -593 395 -855 76 -151 174 -363 216 -470 43 -107 108
-254 144 -327 l66 -132 -31 -5 c-16 -3 -214 -31 -440 -61 -225 -31 -883 -134
-1462 -230 -579 -96 -1059 -175 -1068 -175 -18 0 -155 277 -155 314 0 37 -55
249 -153 591 -161 557 -182 693 -182 1150 1 342 14 483 75 780 141 696 448
1342 810 1706 83 84 476 419 491 419 3 0 17 -12 31 -27z m9533 -688 c39 -290
86 -640 275 -2025 67 -487 139 -1017 161 -1179 22 -161 38 -295 36 -297 -4 -5
-1308 45 -1365 52 -40 5 -45 9 -62 47 -50 115 -80 367 -87 747 -6 343 -5 352
72 747 127 641 305 1162 541 1578 46 83 125 231 174 330 68 137 103 196 147
246 52 58 59 63 65 45 4 -12 23 -142 43 -291z"/>
</g>
</svg>
