<?xml version="1.0" encoding="UTF-8"?>
<!DOCTYPE svg PUBLIC "-//W3C//DTD SVG 1.1//EN" "http://www.w3.org/Graphics/SVG/1.1/DTD/svg11.dtd">
<!-- Creator: CorelDRAW X7 -->
<svg xmlns="http://www.w3.org/2000/svg" xml:space="preserve" width="190px" height="190px" version="1.1" style="shape-rendering:geometricPrecision; text-rendering:geometricPrecision; image-rendering:optimizeQuality; fill-rule:evenodd; clip-rule:evenodd"
viewBox="0 0 3000 3000"
 xmlns:xlink="http://www.w3.org/1999/xlink">
 <defs>
  <style type="text/css">
   <![CDATA[
    .fil1 {fill:#000000;fill-rule:nonzero}
    .fil0 {fill:#000000;fill-rule:nonzero}
   ]]>
  </style>
 </defs>
 <g id="Layer_x0020_1">
  <metadata id="CorelCorpID_0Corel-Layer"/>
  <g id="_1794189291024">
   <path class="fil0" d="M1502 0c-764,0 -1384,619 -1384,1382 0,302 98,583 264,811 57,-27 119,-52 185,-71 -161,-203 -258,-460 -258,-739 0,-656 534,-1189 1190,-1189 656,0 1190,533 1190,1189 0,421 -219,792 -551,1004 32,0 64,0 98,-2 108,-6 210,-55 296,-95 218,-244 352,-552 352,-907 0,-764 -618,-1383 -1382,-1383z"/>
   <path class="fil1" d="M2379 2756c-78,26 -154,41 -228,43 -309,13 -530,-80 -744,-171 -190,-81 -368,-158 -586,-146 -208,17 -352,132 -359,137 -42,34 -48,96 -14,139 34,43 96,51 139,17 2,-1 106,-82 248,-94 168,-8 320,56 495,131 199,84 422,179 718,187 36,1 74,1 110,-1 93,-3 189,-21 285,-54 52,-17 79,-74 62,-126 -18,-52 -75,-80 -126,-62z"/>
   <path class="fil1" d="M2696 2311c-95,65 -285,175 -503,184 -277,12 -458,-67 -650,-151 -202,-88 -412,-180 -728,-166 -292,11 -539,177 -661,276 -44,35 -51,100 -15,145 35,44 100,51 144,16 102,-83 308,-222 540,-231 269,-11 448,66 636,149 185,81 376,164 650,169 30,1 60,1 93,-2 269,-10 498,-142 611,-220 46,-33 58,-97 26,-143 -33,-47 -97,-59 -143,-26z"/>
   <path class="fil0" d="M1579 2242l3 1c120,50 236,97 371,123 375,-172 637,-552 637,-991 1,-599 -488,-1088 -1089,-1088 -600,0 -1088,489 -1088,1088 0,274 102,525 269,716 33,-6 68,-10 102,-12 346,-21 585,77 795,163zm78 -733c-19,-19 -41,-35 -69,-48 -27,-13 -57,-24 -89,-35 -33,-11 -63,-22 -92,-34 -64,-25 -117,-62 -161,-113 -43,-50 -63,-114 -63,-191 1,-50 12,-94 32,-133 19,-38 45,-70 78,-94 33,-25 70,-44 112,-56 42,-12 85,-19 130,-18l3 0c70,1 132,15 183,39 52,26 101,56 147,92l-109 155c-30,-23 -63,-42 -98,-57 -35,-16 -77,-25 -127,-27 -38,-3 -73,5 -102,22 -30,17 -45,43 -46,75 0,21 5,38 16,54 10,15 25,28 44,39 18,12 38,21 58,29 21,8 41,15 60,22 40,14 79,31 118,51 39,19 75,44 106,72 32,28 56,62 75,99 19,38 28,83 26,135 0,50 -11,95 -31,133 -19,40 -46,73 -81,100 -34,27 -74,47 -120,60 -46,13 -96,20 -149,19 -50,-1 -95,-8 -137,-21 -42,-13 -79,-29 -112,-48 -34,-18 -62,-37 -85,-55 -23,-17 -41,-32 -51,-44l111 -157c36,35 80,64 130,87 50,23 101,36 155,36 45,1 83,-9 116,-29 33,-21 49,-50 50,-89 1,-28 -9,-51 -28,-70z"/>
  </g>
 </g>
</svg>
