<?xml version="1.0" encoding="UTF-8"?>
<svg id="Layer_1" data-name="Layer 1" xmlns="http://www.w3.org/2000/svg" viewBox="0 0 123.79 155.73">
  <defs>
    <style>
      .cls-1 {
        stroke-width: 0px;
      }
    </style>
  </defs>
  <g>
    <polygon class="cls-1" points="61.89 .03 61.82 .05 61.82 0 61.89 .03"/>
    <polygon class="cls-1" points="61.89 155.71 61.82 155.73 61.82 155.69 61.89 155.71"/>
    <path class="cls-1" d="m123.79,26.22c0-1.26-.77-2.4-1.95-2.86L61.96.05l-.07-.03-.07.03L1.95,23.36C.77,23.82,0,24.95,0,26.22v51.05c-.04,1.84-.09,14.64,6.67,29.97,6.52,14.8,20.92,35.05,52.42,47.5l.31.11,2.42.84.07.02.07-.02,2.42-.84.31-.11c31.5-12.45,45.9-32.7,52.42-47.5,6.76-15.33,6.7-28.13,6.66-29.97V26.22Zm-14.88,51.44c0,.11.29,11.05-5.68,24.21-7.45,16.41-20.93,28.99-40.1,37.41-.78.34-1.67.34-2.45,0-19.18-8.42-32.66-21-40.1-37.41-5.98-13.17-5.69-24.1-5.68-24.21v-.16s0-.13,0-.13v-40.98c0-1.26.77-2.4,1.94-2.86l43.95-17.11c.71-.28,1.51-.28,2.22,0l43.95,17.11c1.18.46,1.95,1.59,1.95,2.86v40.98s-.01.13-.01.13v.16Z"/>
    <polygon class="cls-1" points="61.96 0 61.96 .05 61.89 .03 61.96 0"/>
    <polygon class="cls-1" points="61.96 155.69 61.96 155.73 61.89 155.71 61.96 155.69"/>
  </g>
  <path class="cls-1" d="m96.05,58.81c1.2,1.2,1.2,3.14,0,4.33l-42.22,42.22-.14-.14-.14.14-24.93-24.93c-1.2-1.2-1.2-3.14,0-4.33l6.5-6.5c1.2-1.2,3.14-1.2,4.33,0l12.08,12.08c1.2,1.2,3.14,1.2,4.33,0l29.37-29.37c1.2-1.2,3.14-1.2,4.33,0l6.5,6.5Z"/>
</svg>