<svg xmlns="http://www.w3.org/2000/svg" width="192" height="192" viewBox="0 0 512 512" version="1.1"><path d="M 361.200 154.200 C 360.540 154.860, 360 155.877, 360 156.460 C 360 157.042, 368.782 166.290, 379.516 177.010 C 399.032 196.500, 399.032 196.500, 389.371 197 C 381.813 197.391, 379.481 197.863, 378.663 199.166 C 377.905 200.372, 377.979 201.270, 378.930 202.416 C 380.056 203.773, 383.371 204, 402.011 204 C 423.776 204, 423.776 204, 431.205 196.250 C 435.291 191.988, 441.059 185.884, 444.022 182.687 C 448.416 177.946, 449.215 176.562, 448.353 175.187 C 447.771 174.259, 446.421 173.368, 445.352 173.207 C 443.973 172.999, 440.134 176.409, 432.123 184.957 C 420.836 197, 420.836 197, 415.160 197 C 409.483 197, 409.483 197, 387.500 175 C 375.409 162.900, 364.816 153, 363.959 153 C 363.101 153, 361.860 153.540, 361.200 154.200 M 333.367 210.772 C 332.194 211.723, 330.731 213.483, 330.117 214.684 C 329.344 216.197, 329 230.601, 329 261.511 C 329 306.154, 329 306.154, 331.923 309.077 C 334.846 312, 334.846 312, 401.788 312 C 467.998 312, 468.759 311.977, 471.365 309.927 C 474 307.855, 474 307.855, 474 261.509 C 474 236.019, 473.720 214.435, 473.379 213.545 C 473.037 212.654, 471.485 211.268, 469.928 210.463 C 467.528 209.222, 457.124 209.003, 401.300 209.022 C 340.465 209.043, 335.339 209.175, 333.367 210.772 M 38.428 223.250 C 39.678 227.238, 43.468 239.080, 46.850 249.567 C 53 268.633, 53 268.633, 53 286.317 C 53 304, 53 304, 62.500 304 C 72 304, 72 304, 72 285.879 C 72 267.759, 72 267.759, 80 242.561 C 84.400 228.702, 88 217.057, 88 216.682 C 88 216.307, 84.041 216, 79.203 216 C 70.406 216, 70.406 216, 66.962 229 C 65.068 236.150, 63.271 242, 62.970 242 C 62.669 242, 60.692 236.150, 58.576 229 C 54.730 216, 54.730 216, 45.442 216 C 36.155 216, 36.155 216, 38.428 223.250 M 157.500 223.870 C 155.850 224.301, 153.506 225.187, 152.291 225.840 C 151.076 226.493, 148.972 228.483, 147.616 230.263 C 146.260 232.044, 144.637 235.544, 144.009 238.041 C 143.260 241.020, 142.977 250.999, 143.184 267.041 C 143.500 291.500, 143.500 291.500, 146.236 296.154 C 148.136 299.386, 150.295 301.448, 153.302 302.904 C 156.330 304.370, 159.576 305, 164.104 305 C 168.827 305, 171.782 304.392, 175.038 302.750 C 178.090 301.211, 180.225 299.175, 181.795 296.305 C 183.454 293.270, 184.257 289.741, 184.693 283.555 C 185.297 275, 185.297 275, 177.149 275 C 169 275, 169 275, 169 282.429 C 169 287.848, 168.575 290.282, 167.429 291.429 C 166.564 292.293, 165.015 293, 163.985 293 C 162.956 293, 161.413 292, 160.557 290.777 C 159.251 288.914, 159 284.626, 159 264.212 C 159 249.344, 159.403 239.116, 160.035 237.934 C 160.675 236.738, 162.125 236, 163.835 236 C 165.356 236, 167.140 236.540, 167.800 237.200 C 168.514 237.914, 169 241.356, 169 245.700 C 169 253, 169 253, 177.143 253 C 185.286 253, 185.286 253, 184.738 245.013 C 184.378 239.756, 183.439 235.472, 181.990 232.479 C 180.448 229.293, 178.628 227.341, 175.907 225.953 C 173.772 224.863, 169.432 223.773, 166.262 223.530 C 163.093 223.287, 159.150 223.440, 157.500 223.870 M 103.517 225.214 C 103.270 225.921, 99.903 243.197, 96.034 263.604 C 92.165 284.012, 89 301.449, 89 302.354 C 89 303.744, 90.238 304, 96.955 304 C 104.909 304, 104.909 304, 105.510 300.750 C 105.841 298.962, 106.428 295.250, 106.814 292.500 C 107.517 287.500, 107.517 287.500, 113.271 287.200 C 117.324 286.988, 119.149 287.284, 119.447 288.200 C 119.680 288.915, 120.390 292.762, 121.026 296.750 C 122.181 304, 122.181 304, 130.090 304 C 135.762 304, 137.994 303.646, 137.981 302.750 C 137.970 302.063, 134.683 284.175, 130.677 263 C 123.394 224.500, 123.394 224.500, 113.679 224.214 C 106.453 224.001, 103.850 224.257, 103.517 225.214 M 192 264 C 192 304, 192 304, 201 304 C 210 304, 210 304, 210 264 C 210 224, 210 224, 201 224 C 192 224, 192 224, 192 264 M 219 263.952 C 219 304, 219 304, 226.479 304 C 233.959 304, 233.959 304, 234.229 283.805 C 234.500 263.609, 234.500 263.609, 242.500 283.797 C 250.500 303.985, 250.500 303.985, 256.750 303.993 C 263 304, 263 304, 263 264 C 263 224, 263 224, 255.500 224 C 248 224, 248 224, 247.974 243.250 C 247.949 262.500, 247.949 262.500, 239.724 243.500 C 231.500 224.500, 231.500 224.500, 225.250 224.202 C 219 223.905, 219 223.905, 219 263.952 M 272 264 C 272 304, 272 304, 290 304 C 308 304, 308 304, 308 298 C 308 292, 308 292, 298.468 292 C 288.937 292, 288.937 292, 289.218 280.250 C 289.500 268.500, 289.500 268.500, 296.250 268.204 C 303 267.909, 303 267.909, 303 261.954 C 303 256, 303 256, 295.964 256 C 288.928 256, 288.928 256, 289.214 246.250 C 289.500 236.500, 289.500 236.500, 298.750 236.212 C 308 235.925, 308 235.925, 308 229.962 C 308 224, 308 224, 290 224 C 272 224, 272 224, 272 264 M 353 232.987 C 353 236, 353 236, 360.500 236 C 368 236, 368 236, 368 263.500 C 368 291, 368 291, 377.484 291 C 386.968 291, 386.968 291, 387.234 263.750 C 387.500 236.500, 387.500 236.500, 395.099 236.211 C 402.699 235.921, 402.699 235.921, 407.428 253.711 C 410.030 263.495, 413.321 275.887, 414.743 281.250 C 417.328 291, 417.328 291, 425.500 291 C 433.671 291, 433.671 291, 441.981 262.250 C 446.552 246.438, 450.503 232.713, 450.762 231.750 C 451.145 230.329, 450.581 230, 447.764 230 C 444.295 230, 444.295 230, 437.929 252.594 C 433.603 267.949, 431.327 274.598, 430.826 273.344 C 430.420 272.330, 427.706 262.275, 424.794 251 C 419.500 230.500, 419.500 230.500, 386.250 230.237 C 353 229.973, 353 229.973, 353 232.987 M 111.611 259.738 C 110.677 266.757, 109.699 273.512, 109.437 274.750 C 108.999 276.826, 109.317 277, 113.560 277 C 118.043 277, 118.145 276.930, 117.613 274.250 C 117.313 272.738, 116.347 266.107, 115.467 259.516 C 114.586 252.925, 113.741 247.408, 113.588 247.254 C 113.435 247.101, 112.545 252.719, 111.611 259.738" stroke="none" fill="#ffffff" fill-rule="evenodd"/><path d="M 228 7.111 C 223.875 7.579, 214.425 9.130, 207 10.558 C 199.575 11.987, 185.952 15.641, 176.727 18.678 C 165.717 22.304, 154.722 26.836, 144.727 31.869 C 136.352 36.086, 125 42.483, 119.500 46.084 C 114 49.686, 104.837 56.388, 99.138 60.977 C 93.439 65.566, 84.399 73.698, 79.049 79.049 C 73.698 84.399, 65.566 93.439, 60.977 99.138 C 56.388 104.837, 49.686 114, 46.084 119.500 C 42.483 125, 36.086 136.352, 31.869 144.727 C 26.830 154.733, 22.309 165.704, 18.681 176.727 C 15.645 185.952, 12.030 199.350, 10.647 206.500 C 9.264 213.650, 7.653 223.870, 7.067 229.211 C 6.480 234.551, 6 246.607, 6 256 C 6 265.393, 6.480 277.449, 7.067 282.789 C 7.653 288.130, 9.264 298.350, 10.647 305.500 C 12.030 312.650, 15.645 326.048, 18.681 335.273 C 22.309 346.296, 26.830 357.267, 31.869 367.273 C 36.086 375.648, 42.483 387, 46.084 392.500 C 49.686 398, 56.388 407.163, 60.977 412.862 C 65.566 418.561, 73.698 427.601, 79.049 432.951 C 84.399 438.302, 93.439 446.434, 99.138 451.023 C 104.837 455.612, 114 462.314, 119.500 465.916 C 125 469.517, 136.352 475.914, 144.727 480.131 C 154.733 485.170, 165.704 489.691, 176.727 493.319 C 185.952 496.355, 199.350 499.970, 206.500 501.353 C 213.650 502.736, 223.870 504.347, 229.211 504.933 C 234.551 505.520, 246.607 506, 256 506 C 265.393 506, 277.449 505.520, 282.789 504.933 C 288.130 504.347, 298.350 502.736, 305.500 501.353 C 312.650 499.970, 326.048 496.355, 335.273 493.319 C 346.296 489.691, 357.267 485.170, 367.273 480.131 C 375.648 475.914, 387 469.517, 392.500 465.916 C 398 462.314, 407.163 455.612, 412.862 451.023 C 418.561 446.434, 427.601 438.302, 432.951 432.951 C 438.302 427.601, 446.434 418.561, 451.023 412.862 C 455.612 407.163, 462.314 398, 465.916 392.500 C 469.517 387, 475.914 375.648, 480.131 367.273 C 485.170 357.267, 489.691 346.296, 493.319 335.273 C 496.355 326.048, 499.970 312.650, 501.353 305.500 C 502.736 298.350, 504.347 288.130, 504.933 282.789 C 505.520 277.449, 506 265.281, 506 255.751 C 506 246.221, 505.335 233.064, 504.522 226.513 C 503.710 219.962, 502.092 209.854, 500.927 204.051 C 499.762 198.248, 496.332 185.952, 493.304 176.727 C 489.666 165.644, 485.197 154.788, 480.131 144.727 C 475.914 136.352, 469.517 125, 465.916 119.500 C 462.314 114, 455.612 104.837, 451.023 99.138 C 446.434 93.439, 438.302 84.399, 432.951 79.049 C 427.601 73.698, 418.561 65.566, 412.862 60.977 C 407.163 56.388, 398 49.686, 392.500 46.084 C 387 42.483, 375.648 36.086, 367.273 31.869 C 357.267 26.830, 346.296 22.309, 335.273 18.681 C 326.048 15.645, 312.650 12.030, 305.500 10.647 C 298.350 9.264, 288.130 7.653, 282.789 7.067 C 277.449 6.480, 264.624 6.058, 254.289 6.130 C 243.955 6.201, 232.125 6.642, 228 7.111 M 361.200 154.200 C 360.540 154.860, 360 155.877, 360 156.460 C 360 157.042, 368.782 166.290, 379.516 177.010 C 399.032 196.500, 399.032 196.500, 389.371 197 C 381.813 197.391, 379.481 197.863, 378.663 199.166 C 377.905 200.372, 377.979 201.270, 378.930 202.416 C 380.056 203.773, 383.371 204, 402.011 204 C 423.776 204, 423.776 204, 431.205 196.250 C 435.291 191.988, 441.059 185.884, 444.022 182.687 C 448.416 177.946, 449.215 176.562, 448.353 175.187 C 447.771 174.259, 446.421 173.368, 445.352 173.207 C 443.973 172.999, 440.134 176.409, 432.123 184.957 C 420.836 197, 420.836 197, 415.160 197 C 409.483 197, 409.483 197, 387.500 175 C 375.409 162.900, 364.816 153, 363.959 153 C 363.101 153, 361.860 153.540, 361.200 154.200 M 333.367 210.772 C 332.194 211.723, 330.731 213.483, 330.117 214.684 C 329.344 216.197, 329 230.601, 329 261.511 C 329 306.154, 329 306.154, 331.923 309.077 C 334.846 312, 334.846 312, 401.788 312 C 467.998 312, 468.759 311.977, 471.365 309.927 C 474 307.855, 474 307.855, 474 261.509 C 474 236.019, 473.720 214.435, 473.379 213.545 C 473.037 212.654, 471.485 211.268, 469.928 210.463 C 467.528 209.222, 457.124 209.003, 401.300 209.022 C 340.465 209.043, 335.339 209.175, 333.367 210.772 M 38.428 223.250 C 39.678 227.238, 43.468 239.080, 46.850 249.567 C 53 268.633, 53 268.633, 53 286.317 C 53 304, 53 304, 62.500 304 C 72 304, 72 304, 72 285.879 C 72 267.759, 72 267.759, 80 242.561 C 84.400 228.702, 88 217.057, 88 216.682 C 88 216.307, 84.041 216, 79.203 216 C 70.406 216, 70.406 216, 66.962 229 C 65.068 236.150, 63.271 242, 62.970 242 C 62.669 242, 60.692 236.150, 58.576 229 C 54.730 216, 54.730 216, 45.442 216 C 36.155 216, 36.155 216, 38.428 223.250 M 157.500 223.870 C 155.850 224.301, 153.506 225.187, 152.291 225.840 C 151.076 226.493, 148.972 228.483, 147.616 230.263 C 146.260 232.044, 144.637 235.544, 144.009 238.041 C 143.260 241.020, 142.977 250.999, 143.184 267.041 C 143.500 291.500, 143.500 291.500, 146.236 296.154 C 148.136 299.386, 150.295 301.448, 153.302 302.904 C 156.330 304.370, 159.576 305, 164.104 305 C 168.827 305, 171.782 304.392, 175.038 302.750 C 178.090 301.211, 180.225 299.175, 181.795 296.305 C 183.454 293.270, 184.257 289.741, 184.693 283.555 C 185.297 275, 185.297 275, 177.149 275 C 169 275, 169 275, 169 282.429 C 169 287.848, 168.575 290.282, 167.429 291.429 C 166.564 292.293, 165.015 293, 163.985 293 C 162.956 293, 161.413 292, 160.557 290.777 C 159.251 288.914, 159 284.626, 159 264.212 C 159 249.344, 159.403 239.116, 160.035 237.934 C 160.675 236.738, 162.125 236, 163.835 236 C 165.356 236, 167.140 236.540, 167.800 237.200 C 168.514 237.914, 169 241.356, 169 245.700 C 169 253, 169 253, 177.143 253 C 185.286 253, 185.286 253, 184.738 245.013 C 184.378 239.756, 183.439 235.472, 181.990 232.479 C 180.448 229.293, 178.628 227.341, 175.907 225.953 C 173.772 224.863, 169.432 223.773, 166.262 223.530 C 163.093 223.287, 159.150 223.440, 157.500 223.870 M 103.517 225.214 C 103.270 225.921, 99.903 243.197, 96.034 263.604 C 92.165 284.012, 89 301.449, 89 302.354 C 89 303.744, 90.238 304, 96.955 304 C 104.909 304, 104.909 304, 105.510 300.750 C 105.841 298.962, 106.428 295.250, 106.814 292.500 C 107.517 287.500, 107.517 287.500, 113.271 287.200 C 117.324 286.988, 119.149 287.284, 119.447 288.200 C 119.680 288.915, 120.390 292.762, 121.026 296.750 C 122.181 304, 122.181 304, 130.090 304 C 135.762 304, 137.994 303.646, 137.981 302.750 C 137.970 302.063, 134.683 284.175, 130.677 263 C 123.394 224.500, 123.394 224.500, 113.679 224.214 C 106.453 224.001, 103.850 224.257, 103.517 225.214 M 192 264 C 192 304, 192 304, 201 304 C 210 304, 210 304, 210 264 C 210 224, 210 224, 201 224 C 192 224, 192 224, 192 264 M 219 263.952 C 219 304, 219 304, 226.479 304 C 233.959 304, 233.959 304, 234.229 283.805 C 234.500 263.609, 234.500 263.609, 242.500 283.797 C 250.500 303.985, 250.500 303.985, 256.750 303.993 C 263 304, 263 304, 263 264 C 263 224, 263 224, 255.500 224 C 248 224, 248 224, 247.974 243.250 C 247.949 262.500, 247.949 262.500, 239.724 243.500 C 231.500 224.500, 231.500 224.500, 225.250 224.202 C 219 223.905, 219 223.905, 219 263.952 M 272 264 C 272 304, 272 304, 290 304 C 308 304, 308 304, 308 298 C 308 292, 308 292, 298.468 292 C 288.937 292, 288.937 292, 289.218 280.250 C 289.500 268.500, 289.500 268.500, 296.250 268.204 C 303 267.909, 303 267.909, 303 261.954 C 303 256, 303 256, 295.964 256 C 288.928 256, 288.928 256, 289.214 246.250 C 289.500 236.500, 289.500 236.500, 298.750 236.212 C 308 235.925, 308 235.925, 308 229.962 C 308 224, 308 224, 290 224 C 272 224, 272 224, 272 264 M 353 232.987 C 353 236, 353 236, 360.500 236 C 368 236, 368 236, 368 263.500 C 368 291, 368 291, 377.484 291 C 386.968 291, 386.968 291, 387.234 263.750 C 387.500 236.500, 387.500 236.500, 395.099 236.211 C 402.699 235.921, 402.699 235.921, 407.428 253.711 C 410.030 263.495, 413.321 275.887, 414.743 281.250 C 417.328 291, 417.328 291, 425.500 291 C 433.671 291, 433.671 291, 441.981 262.250 C 446.552 246.438, 450.503 232.713, 450.762 231.750 C 451.145 230.329, 450.581 230, 447.764 230 C 444.295 230, 444.295 230, 437.929 252.594 C 433.603 267.949, 431.327 274.598, 430.826 273.344 C 430.420 272.330, 427.706 262.275, 424.794 251 C 419.500 230.500, 419.500 230.500, 386.250 230.237 C 353 229.973, 353 229.973, 353 232.987 M 111.611 259.738 C 110.677 266.757, 109.699 273.512, 109.437 274.750 C 108.999 276.826, 109.317 277, 113.560 277 C 118.043 277, 118.145 276.930, 117.613 274.250 C 117.313 272.738, 116.347 266.107, 115.467 259.516 C 114.586 252.925, 113.741 247.408, 113.588 247.254 C 113.435 247.101, 112.545 252.719, 111.611 259.738" stroke="none" fill="#000000" fill-rule="evenodd"/></svg>