<svg xmlns="http://www.w3.org/2000/svg" width="192" height="192" viewBox="0 0 512 512" version="1.1"><path d="M 96.917 204.225 C 97.405 205.476, 103.698 220.214, 110.902 236.977 L 124 267.453 124 287.227 L 124 307 139.500 307 L 155 307 155 287.692 L 155 268.384 167.087 237.442 C 173.736 220.424, 179.574 205.488, 180.063 204.250 C 180.927 202.060, 180.781 202, 174.631 202 L 168.311 202 158.929 226.473 C 153.769 239.934, 149.246 250.621, 148.879 250.223 C 148.511 249.825, 143.698 238.925, 138.181 226 L 128.152 202.500 112.091 202.225 L 96.031 201.951 96.917 204.225 M 194 207.492 L 194 213 207 213 L 220 213 220 260 L 220 307 236 307 L 252 307 252 260 L 252 213 263.981 213 C 275.808 213, 275.970 213.031, 276.567 215.411 C 276.900 216.736, 282.473 237.774, 288.952 262.161 L 300.732 306.500 314.685 306.776 L 328.637 307.053 343.497 255.776 C 351.670 227.574, 358.550 203.938, 358.785 203.250 C 359.096 202.343, 357.597 202, 353.320 202 L 347.426 202 336.463 240.479 C 330.433 261.642, 325.239 278.967, 324.920 278.979 C 324.602 278.990, 319.839 261.788, 314.338 240.750 L 304.335 202.500 249.168 202.242 L 194 201.983 194 207.492" stroke="none" fill="#ffffff" fill-rule="evenodd"/><path d="M 51.500 9.402 C 40.794 12.797, 32.363 19.641, 27.976 28.500 L 25.500 33.500 25.500 256 L 25.500 478.500 28.150 483.520 C 31.602 490.058, 39.604 497.468, 46.782 500.772 C 55.151 504.625, 68.069 505.084, 76.715 501.835 C 80.133 500.551, 174.143 451.800, 285.626 393.500 C 504.295 279.147, 494.622 284.561, 500.047 273.500 C 502.237 269.036, 502.500 267.212, 502.500 256.500 C 502.500 245.788, 502.237 243.964, 500.047 239.500 C 494.641 228.478, 504.157 233.823, 284.633 118.500 C 172.608 59.650, 78.825 10.731, 76.226 9.792 C 70.573 7.748, 57.372 7.540, 51.500 9.402 M 96.917 204.225 C 97.405 205.476, 103.698 220.214, 110.902 236.977 L 124 267.453 124 287.227 L 124 307 139.500 307 L 155 307 155 287.692 L 155 268.384 167.087 237.442 C 173.736 220.424, 179.574 205.488, 180.063 204.250 C 180.927 202.060, 180.781 202, 174.631 202 L 168.311 202 158.929 226.473 C 153.769 239.934, 149.246 250.621, 148.879 250.223 C 148.511 249.825, 143.698 238.925, 138.181 226 L 128.152 202.500 112.091 202.225 L 96.031 201.951 96.917 204.225 M 194 207.492 L 194 213 207 213 L 220 213 220 260 L 220 307 236 307 L 252 307 252 260 L 252 213 263.981 213 C 275.808 213, 275.970 213.031, 276.567 215.411 C 276.900 216.736, 282.473 237.774, 288.952 262.161 L 300.732 306.500 314.685 306.776 L 328.637 307.053 343.497 255.776 C 351.670 227.574, 358.550 203.938, 358.785 203.250 C 359.096 202.343, 357.597 202, 353.320 202 L 347.426 202 336.463 240.479 C 330.433 261.642, 325.239 278.967, 324.920 278.979 C 324.602 278.990, 319.839 261.788, 314.338 240.750 L 304.335 202.500 249.168 202.242 L 194 201.983 194 207.492" stroke="none" fill="#000000" fill-rule="evenodd"/></svg>